<!DOCTYPE html>
<html lang="zh-CN">
<head>
  <meta charset="utf-8" />
  <meta name="viewport" content="width=device-width,initial-scale=1" />
  <title>20世纪中华歌坛名人百集珍藏版 - 郑绪岚</title>
  <style>
    html,body{
      height:100%;
      margin:0;
      font-family:"Microsoft YaHei","微软雅黑",Arial,sans-serif;
      background:#fff;
      color:#222;
      scroll-behavior:smooth;
    }
    .container{
      max-width:900px;
      margin:0 auto;
      padding:20px;
      box-sizing:border-box;
    }

    /* 顶部按钮组（图片上方居中） */
    .top-buttons{
      display:flex;
      justify-content:center;
      gap:20px;
      margin-bottom:15px;
    }
    .top-buttons a{
      display:inline-block;
      background-color:#0078d7;
      color:#fff;
      padding:10px 20px;
      border-radius:6px;
      text-decoration:none;
      transition:background 0.3s;
      font-size:15px;
    }
    .top-buttons a:hover{
      background-color:#005fa3;
    }

    /* 图片展示 */
    .images{
      display:flex;
      flex-direction:column;
      align-items:center;
      gap:20px;
      margin-bottom:30px;
    }
    .images img{
      width:100%;
      max-width:800px;
      height:auto;
      border-radius:10px;
      box-shadow:0 6px 14px rgba(0,0,0,0.08);
    }

    h1{
      font-size:20px;
      text-align:center;
      margin:0 0 20px 0;
    }
    .text-block{
      background:rgba(255,255,255,0.9);
      padding:16px;
      border-radius:8px;
      box-shadow:0 6px 18px rgba(0,0,0,0.06);
      white-space:pre-wrap;
      line-height:1.6;
      font-size:14px;
    }
    hr.sep{
      border:0;
      height:1px;
      background:linear-gradient(90deg,transparent,#ddd,transparent);
      margin:20px 0;
    }

    /* 底部按钮 */
    .buttons{
      display:flex;
      justify-content:center;
      gap:20px;
      margin-top:40px;
    }
    .buttons a{
      display:inline-block;
      background-color:#0078d7;
      color:#fff;
      padding:10px 20px;
      border-radius:6px;
      text-decoration:none;
      transition:background 0.3s;
      font-size:15px;
    }
    .buttons a:hover{
      background-color:#005fa3;
    }
  </style>
</head>
<body id="top">

  <div class="container">

    <!-- 顶部按钮（位于图片上方并居中） -->
    <div class="top-buttons">
      <a href="Contents.html#042">返回目录</a>
      <a href="#bottom">一键到底</a>
    </div>

    <!-- 图片展示 -->
    <div class="images" aria-label="相关图片">
    <a href="https://pic.moebox.io/image/20%E4%B8%96%E7%BA%AA%E4%B8%AD%E5%8D%8E%E6%AD%8C%E5%9D%9B%E5%90%8D%E4%BA%BA%E7%99%BE%E9%9B%86%E7%8F%8D%E8%97%8F%E7%89%88-%E9%83%91%E7%BB%AA%E5%B2%9AImage1.4wo3PP"><img src="https://image.acg.lol/file/2025/10/19/20-Image1.jpg" alt="20世纪中华歌坛名人百集珍藏版 郑绪岚Image1" border="0"></a>
<a href="https://pic.moebox.io/image/20%E4%B8%96%E7%BA%AA%E4%B8%AD%E5%8D%8E%E6%AD%8C%E5%9D%9B%E5%90%8D%E4%BA%BA%E7%99%BE%E9%9B%86%E7%8F%8D%E8%97%8F%E7%89%88-%E9%83%91%E7%BB%AA%E5%B2%9AImage2.4woz3Y"><img src="https://image.acg.lol/file/2025/10/19/20-Image2.jpg" alt="20世纪中华歌坛名人百集珍藏版 郑绪岚Image2" border="0"></a>
<a href="https://pic.moebox.io/image/20%E4%B8%96%E7%BA%AA%E4%B8%AD%E5%8D%8E%E6%AD%8C%E5%9D%9B%E5%90%8D%E4%BA%BA%E7%99%BE%E9%9B%86%E7%8F%8D%E8%97%8F%E7%89%88-%E9%83%91%E7%BB%AA%E5%B2%9AImage3.4wox73"><img src="https://image.acg.lol/file/2025/10/19/20-Image3.jpg" alt="20世纪中华歌坛名人百集珍藏版 郑绪岚Image3" border="0"></a>
    </div>
    
    <h1>20世纪中华歌坛名人百集珍藏版 - 郑绪岚 </h1>

    <div class="text-block">
20世纪中华歌坛名人百集珍藏版-郑绪岚[lwg188原创][wav]

专辑：20世纪中华歌坛名人百集珍藏版
演唱：郑绪岚
语言：国语
公司：中国唱片总公司
日期：1998年


  本系列系统介绍二十世纪中国歌坛的名人名歌、收录了百余名演唱者的曲目，每位演唱者均选收其代表作品。按民族、美声、通俗不同风格精心编排，曲曲动人，它可以说是本世纪中国声乐发展的缩影，无论欣赏、收藏决不会令您失望！

曲目：
01.牧羊曲
02.太阳岛上
03.飞吧鸽子
04.妈妈留给我一首歌
05.绣荷包
06.月亮
07.茉莉花
08.沂蒙山小调
09.白兰花
10.妈妈
11.采忙忙
12.金色的村庄
13.悲伤的日本海
14.化蝶
15.情深谊长
    </div>

    <hr class="sep">

    <div class="text-block">
Exact Audio Copy V0.99 prebeta 1 from 25. May 2007

EAC 抓取日志文件从19. 十一月 2010, 17:13

郑绪岚 / 20世纪中华歌坛名人百集珍藏版

使用驱动器  ：BENQ    DVD-ROM 16X   Adapter: 0  ID: 1

读取模式     : 保护
使用精确流   : 是
废除音频缓冲 : 是
使用 C2 指针 : 否

读取偏移校正                   : 738
读取 Lead-In 和 Lead-Out       : 否
用静音填充抓取中丢失偏移的采样 : 是
去除首尾静音块                 : 否
已用接口                       : Win NT 及 2000 本地 Win32 接口

所用输出格式 : 内部 WAV 函数
样本格式     : 44.100 Hz;16 Bit;立体声


被抓轨 CD 的 TOC

     音轨 |   开始   |   长度   | 起始扇区 | 结尾扇区 
    --------------------------------------------------
       1  |  0:00.00 |  4:09.07 |       0  |   18681  
       2  |  4:09.07 |  3:01.30 |   18682  |   32286  
       3  |  7:10.37 |  3:24.35 |   32287  |   47621  
       4  | 10:34.72 |  4:27.63 |   47622  |   67709  
       5  | 15:02.60 |  2:32.32 |   67710  |   79141  
       6  | 17:35.17 |  3:39.13 |   79142  |   95579  
       7  | 21:14.30 |  2:24.72 |   95580  |  106451  
       8  | 23:39.27 |  1:55.08 |  106452  |  115084  
       9  | 25:34.35 |  3:20.07 |  115085  |  130091  
      10  | 28:54.42 |  2:40.58 |  130092  |  142149  
      11  | 31:35.25 |  2:09.42 |  142150  |  151866  
      12  | 33:44.67 |  4:04.10 |  151867  |  170176  
      13  | 37:49.02 |  3:52.35 |  170177  |  187611  
      14  | 41:41.37 |  3:47.65 |  187612  |  204701  
      15  | 45:29.27 |  2:17.50 |  204702  |  215026  


范围状态及错误

已选择范围

     文件名 E:\文件夹\20世纪中华歌坛名人百集珍藏版-郑绪岚[lwg188原创]\郑绪岚 - 20世纪中华歌坛名人百集珍藏版.wav

     峰值电平 72.8 %
     范围质量 99.9 %
     复制 CRC 9A6F4F10
     复制成功

没有错误发生

状态报告结尾
    </div>

    <!-- 底部按钮 -->
    <div id="bottom" class="buttons">
      <a href="https://url53.ctfile.com/f/25713053-8461833865-02b265?p=1024" download>下载</a>
      <a href="Contents.html#042">返回目录</a>
      <a href="#top">回到顶部</a>
    </div>

  </div>

</body>
</html>

